<svg id="Layer_1" enable-background="new 0 0 64 64" height="512" viewBox="0 0 64 64" width="512" xmlns="http://www.w3.org/2000/svg"><g><path fill="#1089ff" d="m61 21h-2c-2.807 0-4.98-.693-7.496-1.496-3.497-1.115-7.851-2.504-15.504-2.504-7.631 0-15.94 4.294-17.304 5.026-1.514.169-10.607 1.312-18.144 5.079-.338.17-.552.516-.552.895v6c0 1.654 1.346 3 3 3h3.811c1.04 1.79 2.974 3 5.189 3s4.148-1.21 5.188-3h27.623c1.04 1.79 2.974 3 5.189 3s4.148-1.21 5.188-3h4.812c2.206 0 4-1.794 4-4v-9c0-1.654-1.346-3-3-3zm1 6h-2.011c.464-.361 1.115-.692 2.011-.838zm-38.533-5c3.038-1.271 7.383-2.748 11.533-2.963v2.963zm13.533-2.989c5.938.099 9.607 1.058 12.711 2.024-1.932.48-4.838.965-8.711.965h-4zm-33.613 8.989h1.393c-.241.505-.742 1-1.78 1h-1v-.376c.457-.218.92-.425 1.387-.624zm8.613 10c-2.206 0-4-1.794-4-4s1.794-4 4-4 4 1.794 4 4-1.794 4-4 4zm38 0c-2.206 0-4-1.794-4-4s1.794-4 4-4 4 1.794 4 4-1.794 4-4 4zm10-3h-4.09c.055-.326.09-.658.09-1 0-3.309-2.691-6-6-6s-6 2.691-6 6c0 .342.035.674.09 1h-26.18c.055-.326.09-.658.09-1 0-3.309-2.691-6-6-6s-6 2.691-6 6c0 .342.035.674.09 1h-3.09c-.552 0-1-.448-1-1h2c.553 0 1-.447 1-1s-.447-1-1-1h-2v-1h1c2.935 0 4-2.393 4-4 0-.116-.029-.224-.066-.327 6.05-1.996 11.731-2.632 12.121-2.673h21.945c6.836 0 10.834-1.42 12.047-1.928 1.857.538 3.693.928 5.953.928h2c.552 0 1 .448 1 1v.146c-3.836.449-4.899 3.394-4.946 3.529-.104.306-.055.643.133.905.187.264.49.42.813.42h4v4c0 1.103-.898 2-2 2z"/><path fill="#1089ff" d="m52 33h-1v-1c0-.553-.447-1-1-1s-1 .447-1 1v1h-1c-.553 0-1 .447-1 1s.447 1 1 1h1v1c0 .553.447 1 1 1s1-.447 1-1v-1h1c.553 0 1-.447 1-1s-.447-1-1-1z"/><path fill="#1089ff" d="m14 33h-1v-1c0-.553-.447-1-1-1s-1 .447-1 1v1h-1c-.553 0-1 .447-1 1s.447 1 1 1h1v1c0 .553.447 1 1 1s1-.447 1-1v-1h1c.553 0 1-.447 1-1s-.447-1-1-1z"/><path fill="#1089ff" d="m41 32h-20c-.553 0-1 .447-1 1s.447 1 1 1h20c.553 0 1-.447 1-1s-.447-1-1-1z"/><path fill="#1089ff" d="m63 43c-.553 0-1 .447-1 1h-60c0-.553-.447-1-1-1s-1 .447-1 1v2c0 .553.447 1 1 1s1-.447 1-1h60c0 .553.447 1 1 1s1-.447 1-1v-2c0-.553-.447-1-1-1z"/></g></svg>